<?xml version="1.0" encoding="UTF-8" standalone="no" ?>
<!DOCTYPE svg PUBLIC "-//W3C//DTD SVG 1.1//EN" "http://www.w3.org/Graphics/SVG/1.1/DTD/svg11.dtd">
<svg xmlns="http://www.w3.org/2000/svg" xmlns:xlink="http://www.w3.org/1999/xlink" version="1.1" width="1280" height="1024" viewBox="0 0 1280 1024" xml:space="preserve">
<desc>Created with Fabric.js 5.3.0</desc>
<defs>
</defs>
<g transform="matrix(1 0 0 1 640 512)" id="background-logo"  >
<rect style="stroke: none; stroke-width: 0; stroke-dasharray: none; stroke-linecap: butt; stroke-dashoffset: 0; stroke-linejoin: miter; stroke-miterlimit: 4; fill: rgb(255,255,255); fill-opacity: 0; fill-rule: nonzero; opacity: 1;"  paint-order="stroke"  x="-640" y="-512" rx="0" ry="0" width="1280" height="1024" />
</g>
<g transform="matrix(2.4859588618510275 0 0 2.4859588618510275 640 418.0969834667488)" id="logo-logo"  >
<g style=""  paint-order="stroke"   >
		<g transform="matrix(0.14472767831427405 0 0 -0.14472767831427405 -41.28610297351719 -40.63004658042618)"  >
<path style="stroke: none; stroke-width: 1; stroke-dasharray: none; stroke-linecap: butt; stroke-dashoffset: 0; stroke-linejoin: miter; stroke-miterlimit: 4; fill: rgb(78,132,233); fill-rule: nonzero; opacity: 1;"  paint-order="stroke"  transform=" translate(-307.2225, -860.001998824501)" d="M 233.984 706.844 L 253.02700000000002 777.926 L 256.523 790.961 L 275.56600000000003 862.051 L 278.78900000000004 874.0630000000001 L 301.33200000000005 958.1760000000002 C 310.898 993.9020000000002 344.82400000000007 1016.5700000000002 380.46100000000007 1013.1600000000002 L 361.4100000000001 942.0780000000002 L 357.9100000000001 929.0430000000002 L 338.8670000000001 857.9650000000003 L 335.6520000000001 845.9450000000003 L 313.1050000000001 761.8200000000003 C 303.5350000000001 726.1020000000003 269.61300000000006 703.4340000000003 233.9840000000001 706.8440000000003" stroke-linecap="round" />
</g>
		<g transform="matrix(0.14472767831427405 0 0 -0.14472767831427405 -58.21750460414751 -30.85465475867963)"  >
<path style="stroke: none; stroke-width: 1; stroke-dasharray: none; stroke-linecap: butt; stroke-dashoffset: 0; stroke-linejoin: miter; stroke-miterlimit: 4; fill: rgb(78,132,233); fill-rule: nonzero; opacity: 1;"  paint-order="stroke"  transform=" translate(-190.23450000000003, -792.458651652722)" d="M 116.992 639.297 L 136.047 710.3870000000001 L 139.531 723.422 L 158.574 794.504 L 161.80100000000002 806.52 L 184.34000000000003 890.633 C 193.90600000000003 926.363 227.83200000000002 949.0310000000001 263.47700000000003 945.6210000000001 L 244.41800000000003 874.5430000000001 L 240.93000000000004 861.5040000000001 L 221.87500000000003 790.4140000000001 L 218.66000000000003 778.3980000000001 L 196.12100000000004 694.2810000000002 C 186.54300000000003 658.5550000000002 152.62100000000004 635.8830000000002 116.99200000000003 639.2970000000001" stroke-linecap="round" />
</g>
		<g transform="matrix(0.14472767831427405 0 0 -0.14472767831427405 -75.14955750933018 -21.07949578184727)"  >
<path style="stroke: none; stroke-width: 1; stroke-dasharray: none; stroke-linecap: butt; stroke-dashoffset: 0; stroke-linejoin: miter; stroke-miterlimit: 4; fill: rgb(78,132,233); fill-rule: nonzero; opacity: 1;"  paint-order="stroke"  transform=" translate(-73.242, -724.9169133294847)" d="M 0 571.754 L 19.0508 642.836 L 22.543 655.879 L 41.5938 726.953 L 44.8086 738.98 L 67.3477 823.086 C 76.918 858.813 110.852 881.484 146.484 878.082 L 127.43800000000002 806.992 L 123.93800000000002 793.953 L 104.88700000000001 722.875 L 101.68000000000002 710.859 L 79.13280000000002 626.7420000000001 C 69.5586 591.016 35.6406 568.34 0 571.754" stroke-linecap="round" />
</g>
		<g transform="matrix(0.14472767831427405 0 0 -0.14472767831427405 55.83135187221177 -15.439543065401608)"  >
<path style="stroke: none; stroke-width: 1; stroke-dasharray: none; stroke-linecap: butt; stroke-dashoffset: 0; stroke-linejoin: miter; stroke-miterlimit: 4; fill: rgb(78,132,233); fill-rule: nonzero; opacity: 1;"  paint-order="stroke"  transform=" translate(-978.258309990953, -685.9475)" d="M 882.234 825.957 L 934.277 773.906 L 943.816 764.375 L 995.8520000000001 712.34 L 1004.6500000000001 703.539 L 1066.22 641.965 C 1092.38 615.816 1095.05 575.0980000000001 1074.28 545.938 L 1022.25 597.977 L 1012.71 607.523 L 960.676 659.5550000000001 L 951.863 668.355 L 890.293 729.9300000000001 C 864.141 756.0780000000001 861.465 796.797 882.234 825.9570000000001" stroke-linecap="round" />
</g>
		<g transform="matrix(0.14472767831427405 0 0 -0.14472767831427405 55.83151788507803 -34.98986439896785)"  >
<path style="stroke: none; stroke-width: 1; stroke-dasharray: none; stroke-linecap: butt; stroke-dashoffset: 0; stroke-linejoin: miter; stroke-miterlimit: 4; fill: rgb(78,132,233); fill-rule: nonzero; opacity: 1;"  paint-order="stroke"  transform=" translate(-978.2594570615629, -821.0310000000002)" d="M 882.234 961.039 L 934.27 908.992 L 943.816 899.453 L 995.859 847.422 L 1004.6600000000001 838.6170000000001 L 1066.22 777.0430000000001 C 1092.38 750.8950000000001 1095.05 710.1910000000001 1074.28 681.0230000000001 L 1022.25 733.0660000000001 L 1012.71 742.6020000000001 L 960.676 794.6450000000001 L 951.863 803.4340000000001 L 890.293 865.0200000000001 C 864.148 891.1680000000001 861.465 931.883 882.234 961.0390000000001" stroke-linecap="round" />
</g>
		<g transform="matrix(0.14472767831427405 0 0 -0.14472767831427405 55.83158909164848 -54.54040282405157)"  >
<path style="stroke: none; stroke-width: 1; stroke-dasharray: none; stroke-linecap: butt; stroke-dashoffset: 0; stroke-linejoin: miter; stroke-miterlimit: 4; fill: rgb(78,132,233); fill-rule: nonzero; opacity: 1;"  paint-order="stroke"  transform=" translate(-978.2599490653818, -956.1160000000001)" d="M 882.234 1096.13 L 934.277 1044.0900000000001 L 943.816 1034.5400000000002 L 995.859 982.5080000000002 L 1004.6500000000001 973.7110000000001 L 1066.22 912.1330000000002 C 1092.39 885.9770000000002 1095.05 845.2580000000002 1074.28 816.1020000000001 L 1022.24 868.1450000000001 L 1012.71 877.6910000000001 L 960.676 929.7270000000001 L 951.875 938.5160000000001 L 890.293 1000.1000000000001 C 864.141 1026.2500000000002 861.465 1066.9700000000003 882.234 1096.13" stroke-linecap="round" />
</g>
		<g transform="matrix(0.14472767831427405 0 0 -0.14472767831427405 -14.543973849158021 56.071951813511305)"  >
<path style="stroke: none; stroke-width: 1; stroke-dasharray: none; stroke-linecap: butt; stroke-dashoffset: 0; stroke-linejoin: miter; stroke-miterlimit: 4; fill: rgb(78,132,233); fill-rule: nonzero; opacity: 1;"  paint-order="stroke"  transform=" translate(-491.99799999999993, -191.83679697589196)" d="M 661.262 204.988 L 590.1719999999999 185.957 L 577.141 182.44899999999998 L 506.05499999999995 163.398 L 494.03899999999993 160.195 L 409.9219999999999 137.648 C 374.1989999999999 128.082 337.5979999999999 146.121 322.7339999999999 178.691 L 393.8279999999999 197.723 L 406.8549999999999 201.21900000000002 L 477.94499999999994 220.26200000000003 L 489.94899999999996 223.48400000000004 L 574.078 246.02300000000002 C 609.797 255.59400000000002 646.395 237.55900000000003 661.262 204.98800000000003" stroke-linecap="round" />
</g>
		<g transform="matrix(0.14472767831427405 0 0 -0.14472767831427405 2.387210689954827 65.84694428158275)"  >
<path style="stroke: none; stroke-width: 1; stroke-dasharray: none; stroke-linecap: butt; stroke-dashoffset: 0; stroke-linejoin: miter; stroke-miterlimit: 4; fill: rgb(78,132,233); fill-rule: nonzero; opacity: 1;"  paint-order="stroke"  transform=" translate(-608.9844999999999, -124.29620914966287)" d="M 778.242 137.449 L 707.156 118.39800000000001 L 694.1329999999999 114.91000000000001 L 623.0469999999999 95.85940000000001 L 611.0229999999999 92.64840000000001 L 526.9139999999999 70.10940000000001 C 491.1879999999999 60.539100000000005 454.58999999999986 78.5703 439.72699999999986 111.141 L 510.8129999999999 130.191 L 523.8439999999998 133.672 L 594.9259999999998 152.719 L 606.9409999999998 155.96099999999998 L 691.0629999999998 178.48399999999998 C 726.7849999999997 188.05499999999998 763.3909999999997 170.00799999999998 778.2419999999997 137.44899999999998" stroke-linecap="round" />
</g>
		<g transform="matrix(0.14472767831427405 0 0 -0.14472767831427405 19.318612320585146 75.62229181352012)"  >
<path style="stroke: none; stroke-width: 1; stroke-dasharray: none; stroke-linecap: butt; stroke-dashoffset: 0; stroke-linejoin: miter; stroke-miterlimit: 4; fill: rgb(78,132,233); fill-rule: nonzero; opacity: 1;"  paint-order="stroke"  transform=" translate(-725.9725000000001, -56.75316799957754)" d="M 895.234 69.9102 L 824.148 50.8594 L 811.113 47.3594 L 740.027 28.3203 L 728.02 25.1094 L 643.906 2.57031 C 608.1759999999999 -7.0117199999999995 571.578 11.031300000000002 556.711 43.5898 L 627.793 62.648399999999995 L 640.828 66.14059999999999 L 711.9259999999999 85.1797 L 723.9379999999999 88.4102 L 808.0469999999999 110.941 C 843.7699999999999 120.512 880.3709999999999 102.46900000000001 895.2339999999999 69.9102" stroke-linecap="round" />
</g>
		<g transform="matrix(0.14472767831427405 0 0 -0.14472767831427405 41.28783970565695 40.63259437282926)"  >
<path style="stroke: none; stroke-width: 1; stroke-dasharray: none; stroke-linecap: butt; stroke-dashoffset: 0; stroke-linejoin: miter; stroke-miterlimit: 4; fill: rgb(17,61,141); fill-rule: nonzero; opacity: 1;"  paint-order="stroke"  transform=" translate(-877.7695000000001, -298.51547530828213)" d="M 951.008 451.672 L 931.9530000000001 380.59400000000005 L 928.469 367.559 L 909.426 296.473 L 906.1990000000001 284.46500000000003 L 883.6600000000001 200.34400000000005 C 874.0820000000001 164.61700000000005 840.1680000000001 141.94100000000006 804.5310000000001 145.35900000000004 L 823.5740000000001 216.44500000000005 L 827.07 229.48000000000005 L 846.1210000000001 300.55500000000006 L 849.3360000000001 312.5780000000001 L 871.8870000000002 396.6880000000001 C 881.4450000000002 432.4100000000001 915.3710000000002 455.0900000000001 951.0080000000002 451.6720000000001" stroke-linecap="round" />
</g>
		<g transform="matrix(0.14472767831427405 0 0 -0.14472767831427405 58.2185900617348 30.85724937252695)"  >
<path style="stroke: none; stroke-width: 1; stroke-dasharray: none; stroke-linecap: butt; stroke-dashoffset: 0; stroke-linejoin: miter; stroke-miterlimit: 4; fill: rgb(17,61,141); fill-rule: nonzero; opacity: 1;"  paint-order="stroke"  transform=" translate(-994.753, -366.0584989659633)" d="M 1067.99 519.219 L 1048.95 448.13300000000004 L 1045.45 435.098 L 1026.41 364.012 L 1023.1700000000001 352.004 L 1000.6300000000001 267.88300000000004 C 991.0740000000001 232.15600000000003 957.1560000000001 209.48000000000005 921.5160000000001 212.89800000000002 L 940.566 283.98400000000004 L 944.063 297.02000000000004 L 963.098 368.09400000000005 L 966.3159999999999 380.1170000000001 L 988.8549999999999 464.2270000000001 C 998.4379999999999 499.96100000000007 1032.36 522.6370000000001 1067.99 519.219" stroke-linecap="round" />
</g>
		<g transform="matrix(0.14472767831427405 0 0 -0.14472767831427405 75.14984696468684 21.082404245483133)"  >
<path style="stroke: none; stroke-width: 1; stroke-dasharray: none; stroke-linecap: butt; stroke-dashoffset: 0; stroke-linejoin: miter; stroke-miterlimit: 4; fill: rgb(17,61,141); fill-rule: nonzero; opacity: 1;"  paint-order="stroke"  transform=" translate(-1111.74, -433.5980687351812)" d="M 1184.98 586.758 L 1165.93 515.6840000000001 L 1162.44 502.6450000000001 L 1143.4 431.5510000000001 L 1140.17 419.5430000000001 L 1117.63 335.42200000000014 C 1108.0600000000002 299.7070000000001 1074.14 277.02000000000015 1038.5 280.43800000000016 L 1057.55 351.52300000000014 L 1061.04 364.55900000000014 L 1080.09 435.63300000000015 L 1083.3 447.6680000000002 L 1105.85 531.7770000000002 C 1115.4199999999998 567.5000000000001 1149.35 590.1760000000002 1184.98 586.7580000000002" stroke-linecap="round" />
</g>
		<g transform="matrix(0.14472767831427405 0 0 -0.14472767831427405 -55.83065002545152 15.440350381962674)"  >
<path style="stroke: none; stroke-width: 1; stroke-dasharray: none; stroke-linecap: butt; stroke-dashoffset: 0; stroke-linejoin: miter; stroke-miterlimit: 4; fill: rgb(17,61,141); fill-rule: nonzero; opacity: 1;"  paint-order="stroke"  transform=" translate(-206.72653943915248, -472.582)" d="M 302.75 332.566 L 250.707 384.609 L 241.16 394.15999999999997 L 189.13299999999998 446.19899999999996 L 180.332 454.98799999999994 L 118.75399999999999 516.563 C 92.59769999999999 542.715 89.93749999999999 583.434 110.70299999999999 612.598 L 162.738 560.555 L 172.281 551.0079999999999 L 224.316 498.97299999999996 L 233.113 490.18399999999997 L 294.69100000000003 428.58599999999996 C 320.85200000000003 402.44899999999996 323.52000000000004 361.727 302.75000000000006 332.566" stroke-linecap="round" />
</g>
		<g transform="matrix(0.14472767831427405 0 0 -0.14472767831427405 -55.83059998859221 34.9913229900813)"  >
<path style="stroke: none; stroke-width: 1; stroke-dasharray: none; stroke-linecap: butt; stroke-dashoffset: 0; stroke-linejoin: miter; stroke-miterlimit: 4; fill: rgb(17,61,141); fill-rule: nonzero; opacity: 1;"  paint-order="stroke"  transform=" translate(-206.7268851702517, -337.4939999999999)" d="M 302.75 197.488 L 250.707 249.51999999999998 L 241.172 259.063 L 189.13299999999998 311.102 L 180.332 319.902 L 118.75399999999999 381.47299999999996 C 92.59769999999999 407.62899999999996 89.93749999999999 448.34799999999996 110.707 477.49999999999994 L 162.738 425.46099999999996 L 172.281 415.91799999999995 L 224.316 363.88699999999994 L 233.113 355.0899999999999 L 294.69100000000003 293.5079999999999 C 320.85200000000003 267.3519999999999 323.52000000000004 226.63299999999992 302.75000000000006 197.48799999999994" stroke-linecap="round" />
</g>
		<g transform="matrix(0.14472767831427405 0 0 -0.14472767831427405 -55.83059998859221 54.54255610802096)"  >
<path style="stroke: none; stroke-width: 1; stroke-dasharray: none; stroke-linecap: butt; stroke-dashoffset: 0; stroke-linejoin: miter; stroke-miterlimit: 4; fill: rgb(17,61,141); fill-rule: nonzero; opacity: 1;"  paint-order="stroke"  transform=" translate(-206.7268851702517, -202.40420000000003)" d="M 302.75 62.3984 L 250.707 114.441 L 241.16 123.96900000000001 L 189.13299999999998 176.01600000000002 L 180.332 184.81300000000002 L 118.75399999999999 246.395 C 92.59769999999999 272.539 89.93749999999999 313.262 110.707 342.41 L 162.738 290.38300000000004 L 172.281 280.83200000000005 L 224.316 228.80100000000004 L 233.113 220.00000000000006 L 294.69100000000003 158.42200000000005 C 320.852 132.27 323.52 91.5508 302.75 62.3984" stroke-linecap="round" />
</g>
		<g transform="matrix(0.14472767831427405 0 0 -0.14472767831427405 14.544625123710432 -56.07077206928949)"  >
<path style="stroke: none; stroke-width: 1; stroke-dasharray: none; stroke-linecap: butt; stroke-dashoffset: 0; stroke-linejoin: miter; stroke-miterlimit: 4; fill: rgb(17,61,141); fill-rule: nonzero; opacity: 1;"  paint-order="stroke"  transform=" translate(-692.9865, -966.6901297246181)" d="M 523.727 953.539 L 594.8199999999999 972.578 L 607.8439999999999 976.074 L 678.9179999999999 995.1289999999999 L 690.9449999999999 998.3439999999999 L 775.0509999999999 1020.8799999999999 C 810.781 1030.4499999999998 847.3829999999999 1012.4099999999999 862.2459999999999 979.8439999999998 L 791.16 960.801 L 778.125 957.305 L 707.043 938.262 L 695.027 935.039 L 610.906 912.5 C 575.1949999999999 902.93 538.574 920.973 523.727 953.539" stroke-linecap="round" />
</g>
		<g transform="matrix(0.14472767831427405 0 0 -0.14472767831427405 -2.3871383261156325 -65.8459515523511)"  >
<path style="stroke: none; stroke-width: 1; stroke-dasharray: none; stroke-linecap: butt; stroke-dashoffset: 0; stroke-linejoin: miter; stroke-miterlimit: 4; fill: rgb(17,61,141); fill-rule: nonzero; opacity: 1;"  paint-order="stroke"  transform=" translate(-575.996, -1034.232009736228)" d="M 406.738 1021.08 L 477.828 1040.13 L 490.859 1043.6200000000001 L 561.934 1062.66 L 573.961 1065.88 L 658.066 1088.42 C 693.801 1098 730.398 1079.96 745.254 1047.38 L 674.1800000000001 1028.3400000000001 L 661.1450000000001 1024.8500000000001 L 590.0590000000001 1005.8000000000002 L 578.047 1002.5800000000002 L 493.922 980.0390000000001 C 458.20300000000003 970.469 421.60200000000003 988.5160000000001 406.73800000000006 1021.0800000000002" stroke-linecap="round" />
</g>
		<g transform="matrix(0.14472767831427405 0 0 -0.14472767831427405 -19.31853995674595 -75.62195705277554)"  >
<path style="stroke: none; stroke-width: 1; stroke-dasharray: none; stroke-linecap: butt; stroke-dashoffset: 0; stroke-linejoin: miter; stroke-miterlimit: 4; fill: rgb(17,61,141); fill-rule: nonzero; opacity: 1;"  paint-order="stroke"  transform=" translate(-459.0079999999998, -1101.7795971382452)" d="M 289.746 1088.63 L 360.84 1107.66 L 373.871 1111.16 L 444.94899999999996 1130.21 L 456.96899999999994 1133.43 L 541.0859999999999 1155.97 C 576.8129999999999 1165.54 613.406 1147.5 628.2699999999999 1114.93 L 557.1879999999999 1095.88 L 544.1559999999998 1092.39 L 473.0659999999998 1073.3400000000001 L 461.0549999999998 1070.1200000000001 L 376.9339999999998 1047.5900000000001 C 341.2109999999998 1038.0200000000002 304.6089999999998 1056.0500000000002 289.7459999999998 1088.63" stroke-linecap="round" />
</g>
</g>
</g>
<g transform="matrix(1.9211538461538462 0 0 1.9211538461538462 643.141461763822 712.38116070261)" id="text-logo"  >
<g style=""  paint-order="stroke"   >
		<g transform="matrix(1 0 0 1 0 0)" id="text-logo-path-0"  >
<path style="stroke: none; stroke-width: 0; stroke-dasharray: none; stroke-linecap: butt; stroke-dashoffset: 0; stroke-linejoin: miter; stroke-miterlimit: 4; fill: rgb(17,61,141); fill-rule: nonzero; opacity: 1;"  paint-order="stroke"  transform=" translate(-173.02999999999997, 17.130000000000003)" d="M 9.66 0 L 10.21 -14.74 L 16.34 -14.74 C 16.54 -14.69 16.78 -14.69 17.13 -14.74 L 18.18 -14.89 C 18.53 -14.94 18.93 -15.09 19.32 -15.34 C 19.67 -15.59 20.02 -15.94 20.37 -16.34 C 20.72 -16.68 20.97 -17.23 21.22 -17.98 C 21.47 -18.73 21.62 -19.57 21.67 -20.57 L 10.46 -20.57 L 10.76 -28.44 L 20.97 -28.44 C 21.32 -28.44 21.67 -28.49 22.01 -28.54 C 22.36 -28.59 22.76 -28.69 23.31 -28.94 C 23.81 -29.19 24.25 -29.48 24.65 -29.88 C 25.05 -30.23 25.4 -30.83 25.75 -31.58 C 26.05 -32.32 26.25 -33.22 26.3 -34.27 L 4.33 -34.27 L 2.54 0 Z M 47.06 0 C 47.4 -6.72 47.75 -12.95 48 -18.58 C 48.25 -24.21 48.4 -28.24 48.45 -30.68 L 48.55 -34.27 C 47.11 -34.27 45.86 -34.17 44.91 -33.97 C 43.97 -33.72 43.27 -33.37 42.82 -32.92 C 42.37 -32.47 42.08 -32.02 41.93 -31.63 C 41.78 -31.18 41.68 -30.63 41.63 -29.98 L 40.03 0 Z M 71.3 0 L 72.55 -21.02 C 80.86 -6.92 85.1 0.15 85.3 0.25 L 89.68 0.25 L 90.62 -12.55 C 91.17 -21.02 91.47 -26.4 91.47 -28.59 C 91.47 -30.78 91.27 -32.27 90.92 -33.07 C 90.53 -33.87 89.58 -34.27 88.08 -34.27 L 85.2 -34.27 L 84.25 -13.45 C 84.25 -13.7 83.2 -15.49 81.16 -18.93 C 79.12 -22.36 76.83 -25.75 74.34 -29.19 C 71.8 -32.62 70.11 -34.32 69.16 -34.32 L 69.16 -34.27 L 66.67 -34.27 L 64.33 0 Z M 111.68 -34.27 C 111.23 -34.27 110.79 -34.22 110.29 -34.07 C 109.79 -33.92 109.24 -33.62 108.64 -33.27 C 108 -32.87 107.5 -32.27 107.05 -31.43 C 106.6 -30.58 106.35 -29.58 106.25 -28.44 L 116.26 -28.44 L 114.77 0 L 121.84 0 L 122.99 -28.44 L 129.61 -28.44 C 130.06 -28.44 130.56 -28.49 131.01 -28.64 C 131.45 -28.74 131.95 -28.94 132.6 -29.29 C 133.25 -29.63 133.75 -30.23 134.19 -31.08 C 134.64 -31.92 134.89 -33.02 134.94 -34.27 Z M 167.35 -0.05 C 167.8 -0.05 168.15 -0.05 168.4 -0.1 C 168.65 -0.1 169.05 -0.2 169.64 -0.4 C 170.19 -0.6 170.69 -0.9 171.04 -1.29 C 171.34 -1.64 171.69 -2.29 172.04 -3.14 C 172.38 -3.98 172.58 -4.98 172.68 -6.13 L 156.55 -6.13 L 156.99 -14.89 L 163.02 -14.89 C 163.27 -14.94 163.62 -14.94 164.02 -14.89 C 164.42 -14.84 164.86 -14.89 165.31 -15.09 C 165.76 -15.29 166.21 -15.54 166.66 -15.89 C 167.05 -16.24 167.4 -16.78 167.75 -17.63 C 168.05 -18.43 168.25 -19.42 168.35 -20.57 L 157.19 -20.57 C 157.34 -23.96 157.44 -26.6 157.44 -28.44 L 167.65 -28.44 C 168 -28.44 168.35 -28.49 168.7 -28.54 C 169.05 -28.59 169.45 -28.69 169.99 -28.94 C 170.49 -29.19 170.94 -29.48 171.34 -29.88 C 171.74 -30.23 172.09 -30.83 172.43 -31.58 C 172.73 -32.32 172.93 -33.22 172.98 -34.27 L 151.02 -34.27 L 149.22 0 Z M 194.49 0 L 195.13 -12.5 C 195.73 -12.2 196.28 -12 196.83 -11.85 C 197.48 -10.56 198.22 -9.31 199.02 -8.07 C 199.77 -6.82 200.71 -5.58 201.81 -4.23 C 202.9 -2.89 204.15 -1.79 205.49 -0.95 C 206.84 -0.1 208.13 0.3 209.48 0.3 C 210.72 0.3 211.82 -0.1 212.77 -0.95 C 213.71 -1.74 214.16 -2.74 214.16 -3.93 C 212.27 -4.13 210.33 -4.98 208.38 -6.42 C 206.44 -7.87 204.7 -9.61 203.25 -11.6 C 206.49 -12.1 209.03 -13.45 210.92 -15.69 C 212.77 -17.88 213.71 -20.47 213.71 -23.41 C 213.71 -24.65 213.51 -25.9 213.16 -27.04 C 212.77 -28.19 212.12 -29.38 211.17 -30.58 C 210.23 -31.73 208.83 -32.67 206.94 -33.42 C 205 -34.12 202.71 -34.46 200.07 -34.46 C 196.13 -34.46 192.59 -33.82 189.46 -32.47 L 187.51 0 Z M 195.33 -17.08 C 195.63 -23.21 195.78 -27.19 195.78 -29.14 C 196.88 -29.58 198.07 -29.83 199.32 -29.83 C 201.66 -29.83 203.5 -29.24 204.8 -27.99 C 206.04 -26.75 206.69 -25.1 206.69 -23.11 C 206.69 -21.76 206.49 -20.62 206.09 -19.67 C 205.64 -18.73 205.1 -17.98 204.4 -17.53 C 203.65 -17.03 202.9 -16.68 202.16 -16.49 C 201.41 -16.24 200.56 -16.14 199.72 -16.14 C 198.12 -16.14 196.68 -16.44 195.33 -17.08 Z M 234.22 0 L 235.22 -20.02 C 236.16 -16.68 237.51 -12.5 239.3 -7.47 L 241.94 0 L 242.94 0 C 244.43 0 246.03 -1.49 247.77 -4.43 C 249.46 -7.37 251.6 -12.15 254.19 -18.83 L 253.15 0 L 259.57 0 L 260.37 -11.65 C 260.82 -19.42 261.07 -24.4 261.07 -26.6 C 261.07 -29.68 260.72 -31.73 259.97 -32.77 C 259.22 -33.77 257.58 -34.27 254.94 -34.27 C 254.59 -33.02 252.8 -28.99 249.51 -22.11 C 246.22 -15.24 244.43 -11.8 244.13 -11.8 L 238.06 -29.88 C 237.86 -30.83 237.56 -31.58 237.21 -32.22 C 236.81 -32.82 236.36 -33.27 235.87 -33.52 C 235.37 -33.77 234.82 -33.97 234.17 -34.12 C 233.52 -34.27 232.88 -34.32 232.18 -34.32 L 229.89 -34.27 L 227.9 0 Z M 294.48 -0.05 C 294.92 -0.05 295.27 -0.05 295.52 -0.1 C 295.77 -0.1 296.17 -0.2 296.77 -0.4 C 297.31 -0.6 297.81 -0.9 298.16 -1.29 C 298.46 -1.64 298.81 -2.29 299.16 -3.14 C 299.51 -3.98 299.7 -4.98 299.8 -6.13 L 283.67 -6.13 L 284.12 -14.89 L 290.14 -14.89 C 290.39 -14.94 290.74 -14.94 291.14 -14.89 C 291.54 -14.84 291.98 -14.89 292.43 -15.09 C 292.88 -15.29 293.33 -15.54 293.78 -15.89 C 294.18 -16.24 294.52 -16.78 294.87 -17.63 C 295.17 -18.43 295.37 -19.42 295.47 -20.57 L 284.32 -20.57 C 284.46 -23.96 284.56 -26.6 284.56 -28.44 L 294.77 -28.44 C 295.12 -28.44 295.47 -28.49 295.82 -28.54 C 296.17 -28.59 296.57 -28.69 297.11 -28.94 C 297.61 -29.19 298.06 -29.48 298.46 -29.88 C 298.86 -30.23 299.21 -30.83 299.56 -31.58 C 299.85 -32.32 300.05 -33.22 300.1 -34.27 L 278.14 -34.27 L 276.35 0 Z M 323.2 -29.24 C 324.25 -29.68 325.44 -29.93 326.74 -29.93 C 329.48 -29.93 331.87 -28.94 334.01 -26.89 C 336.1 -24.8 337.15 -22.06 337.15 -18.58 C 337.15 -16.44 336.7 -14.34 335.8 -12.25 C 334.86 -10.16 333.51 -8.37 331.67 -6.92 C 329.83 -5.43 327.73 -4.68 325.44 -4.68 C 324.05 -4.68 322.75 -4.98 321.56 -5.58 C 322.6 -16.09 323.15 -23.96 323.2 -29.24 Z M 324.75 0.2 C 327.59 0.2 330.18 -0.25 332.47 -1.1 C 334.71 -1.94 336.55 -3.04 337.89 -4.38 C 339.24 -5.73 340.34 -7.22 341.23 -8.96 C 342.08 -10.66 342.68 -12.3 343.02 -13.85 C 343.37 -15.39 343.52 -16.93 343.52 -18.43 C 343.52 -23.06 342.13 -26.94 339.29 -29.98 C 336.4 -33.02 332.32 -34.56 326.99 -34.56 C 323.35 -34.56 320.02 -33.92 316.88 -32.57 L 314.64 -1.54 C 317.97 -0.4 321.36 0.2 324.75 0.2 Z" stroke-linecap="round" />
</g>
</g>
</g>
<g transform="matrix(1.9211538461538462 0 0 1.9211538461538462 643.2785681128208 427.0460989380186)" id="tagline-1c24f5d1-8b37-4eef-ba36-d763879080c8-logo"  >
<g style=""  paint-order="stroke"   >
		<g transform="matrix(1 0 0 1 0 0)" id="tagline-1c24f5d1-8b37-4eef-ba36-d763879080c8-logo-path-0"  >
<path style="stroke: none; stroke-width: 0; stroke-dasharray: none; stroke-linecap: butt; stroke-dashoffset: 0; stroke-linejoin: miter; stroke-miterlimit: 4; fill: rgb(17,61,141); fill-rule: nonzero; opacity: 1;"  paint-order="stroke"  transform=" translate(-25.725, 30.57)" d="M 17.24 0 L 18.22 -26.3 L 29.15 -26.3 C 29.5 -26.22 29.95 -26.22 30.57 -26.3 L 32.44 -26.57 C 33.06 -26.66 33.77 -26.93 34.48 -27.37 C 35.1 -27.82 35.72 -28.44 36.35 -29.15 C 36.97 -29.77 37.41 -30.75 37.86 -32.08 C 38.3 -33.41 38.57 -34.92 38.66 -36.7 L 18.66 -36.7 L 19.2 -50.74 L 37.41 -50.74 C 38.04 -50.74 38.66 -50.83 39.28 -50.92 C 39.9 -51.01 40.61 -51.19 41.59 -51.63 C 42.48 -52.08 43.28 -52.61 43.99 -53.32 C 44.7 -53.94 45.32 -55.01 45.94 -56.34 C 46.48 -57.67 46.83 -59.27 46.92 -61.14 L 7.73 -61.14 L 4.53 0 Z" stroke-linecap="round" />
</g>
</g>
</g>
</svg>